<svg width="1200" height="680" viewBox="0 0 1200 680" fill="none" xmlns="http://www.w3.org/2000/svg" role="img" aria-label="滿額免運活動素材">
  <defs>
    <linearGradient id="bg" x1="60" y1="40" x2="1140" y2="650" gradientUnits="userSpaceOnUse">
      <stop stop-color="#11253C"/>
      <stop offset="0.48" stop-color="#164E63"/>
      <stop offset="1" stop-color="#0D9488"/>
    </linearGradient>
    <radialGradient id="light" cx="0" cy="0" r="1" gradientUnits="userSpaceOnUse" gradientTransform="translate(1010 128) rotate(132) scale(480 360)">
      <stop stop-color="#BAE6FD" stop-opacity="0.72"/>
      <stop offset="1" stop-color="#BAE6FD" stop-opacity="0"/>
    </radialGradient>
    <linearGradient id="glass" x1="110" y1="126" x2="662" y2="562" gradientUnits="userSpaceOnUse">
      <stop stop-color="#FFFFFF" stop-opacity="0.22"/>
      <stop offset="1" stop-color="#FFFFFF" stop-opacity="0.08"/>
    </linearGradient>
    <linearGradient id="tag" x1="0" y1="0" x2="1" y2="1">
      <stop stop-color="#0891B2"/>
      <stop offset="1" stop-color="#0EA5E9"/>
    </linearGradient>
    <filter id="shadow" x="0" y="0" width="1200" height="680" filterUnits="userSpaceOnUse" color-interpolation-filters="sRGB">
      <feDropShadow dx="0" dy="14" stdDeviation="20" flood-color="#082337" flood-opacity="0.36"/>
    </filter>
  </defs>

  <rect x="20" y="20" width="1160" height="640" rx="36" fill="url(#bg)"/>
  <rect x="20" y="20" width="1160" height="640" rx="36" fill="url(#light)"/>

  <g filter="url(#shadow)">
    <rect x="86" y="114" width="626" height="448" rx="34" fill="url(#glass)" stroke="rgba(255,255,255,0.24)"/>
  </g>

  <rect x="122" y="152" width="214" height="52" rx="26" fill="url(#tag)"/>
  <text x="229" y="186" text-anchor="middle" font-family="Noto Sans TC, PingFang TC, Microsoft JhengHei, sans-serif" font-size="22" font-weight="700" fill="#E0F2FE">FREE SHIPPING</text>

  <text x="122" y="266" font-family="Noto Sans TC, PingFang TC, Microsoft JhengHei, sans-serif" font-size="58" font-weight="900" fill="#F8FAFC">滿額免運</text>
  <text x="122" y="356" font-family="Noto Sans TC, PingFang TC, Microsoft JhengHei, sans-serif" font-size="90" font-weight="900" fill="#BAE6FD">自動套用</text>

  <rect x="122" y="404" width="258" height="56" rx="18" fill="#ECFEFF" fill-opacity="0.96"/>
  <text x="251" y="440" text-anchor="middle" font-family="Noto Sans TC, PingFang TC, Microsoft JhengHei, sans-serif" font-size="30" font-weight="800" fill="#0E7490">宅配 NT$499</text>
  <rect x="398" y="404" width="258" height="56" rx="18" fill="#DBEAFE" fill-opacity="0.96"/>
  <text x="527" y="440" text-anchor="middle" font-family="Noto Sans TC, PingFang TC, Microsoft JhengHei, sans-serif" font-size="30" font-weight="800" fill="#1E3A8A">超商 NT$299</text>

  <rect x="122" y="484" width="454" height="52" rx="26" fill="#FFFFFF" fill-opacity="0.92"/>
  <text x="349" y="518" text-anchor="middle" font-family="Noto Sans TC, PingFang TC, Microsoft JhengHei, sans-serif" font-size="27" font-weight="800" fill="#075985">不用輸入折扣碼，結帳即免運</text>

  <g filter="url(#shadow)">
    <rect x="804" y="154" width="320" height="360" rx="40" fill="#E0F2FE"/>
    <rect x="804" y="154" width="320" height="360" rx="40" stroke="#93C5FD" stroke-width="2"/>
    <circle cx="898" cy="312" r="72" fill="#38BDF8"/>
    <rect x="938" y="274" width="122" height="74" rx="18" fill="#0EA5E9"/>
    <circle cx="958" cy="376" r="32" fill="#0EA5E9"/>
    <circle cx="1042" cy="376" r="32" fill="#0EA5E9"/>
    <rect x="862" y="420" width="204" height="46" rx="23" fill="#FFFFFF" fill-opacity="0.94"/>
    <text x="964" y="450" text-anchor="middle" font-family="Noto Sans TC, PingFang TC, Microsoft JhengHei, sans-serif" font-size="24" font-weight="900" fill="#075985">結帳即免運</text>
  </g>
</svg>
